<svg xmlns="http://www.w3.org/2000/svg" viewBox="0 0 22.501 23"><defs><style>.a,.d{fill:none;}.a{stroke:#000;stroke-width:1.5px;}.b{fill:#fff;}.c{stroke:none;}</style></defs><g transform="translate(-1435.249 -28)"><path class="a" d="M1436,51a10.325,10.325,0,0,1,10.453-10.191h.1A10.325,10.325,0,0,1,1457,51"/><g class="a" transform="translate(1440.75 28)"><rect class="c" width="12.13" height="11.81" rx="5.905"/><rect class="d" x="0.75" y="0.75" width="10.63" height="10.31" rx="5.155"/></g><path class="b" d="M1436,51a10.324,10.324,0,0,1,10.453-10.191h.1A10.324,10.324,0,0,1,1457,51Zm10.656-11.19a5.9,5.9,0,1,1,0-11.81h.32a5.9,5.9,0,1,1,0,11.81Z"/></g></svg>